<svg width="166" height="43" viewBox="0 0 166 43" fill="none" xmlns="http://www.w3.org/2000/svg">
<path d="M0.352 30L3.488 7.6H11.088C12.2827 7.6 13.3173 7.89333 14.192 8.48C15.0773 9.056 15.7333 9.84 16.16 10.832C16.5867 11.8133 16.7147 12.9173 16.544 14.144C16.3947 15.2427 16.032 16.24 15.456 17.136C14.88 18.032 14.16 18.7733 13.296 19.36C12.4427 19.9467 11.5147 20.336 10.512 20.528L14.672 30H12.08L7.984 20.704H3.888L2.592 30H0.352ZM4.208 18.464H9.376C10.1653 18.464 10.912 18.272 11.616 17.888C12.3307 17.4933 12.928 16.9653 13.408 16.304C13.8987 15.632 14.2027 14.8747 14.32 14.032C14.448 13.1893 14.3627 12.4373 14.064 11.776C13.7653 11.104 13.312 10.576 12.704 10.192C12.1067 9.79733 11.4133 9.6 10.624 9.6H5.456L4.208 18.464ZM30.6458 14H33.0138L20.8858 38H18.5018L22.5498 30L19.0458 14H21.4938L24.0858 26.912L30.6458 14ZM43.8703 16.24H40.0463L38.0943 30H35.8543L37.8063 16.24H34.9103L35.2143 14H38.1102L38.7983 8.976H41.0383L40.3503 14H44.1743L43.8703 16.24ZM60.1335 20.096L58.7575 30H56.5175L57.8295 20.544C57.9575 19.6693 57.8562 18.8747 57.5255 18.16C57.2055 17.4453 56.7148 16.8747 56.0535 16.448C55.4028 16.0213 54.6402 15.808 53.7655 15.808C52.8908 15.808 52.0642 16.0213 51.2855 16.448C50.5175 16.8747 49.8722 17.4453 49.3495 18.16C48.8268 18.8747 48.5015 19.6693 48.3735 20.544L47.0455 30H44.8055L48.1655 6H50.4055L48.9815 16.208C49.6642 15.3973 50.4908 14.752 51.4615 14.272C52.4322 13.792 53.4508 13.552 54.5175 13.552C55.7228 13.552 56.7788 13.8453 57.6855 14.432C58.5922 15.0187 59.2695 15.808 59.7175 16.8C60.1655 17.792 60.3042 18.8907 60.1335 20.096ZM61.9458 30L64.1858 14H66.4258L66.1218 16.208C66.8151 15.3973 67.6418 14.752 68.6018 14.272C69.5618 13.792 70.5751 13.552 71.6418 13.552C72.8471 13.552 73.9084 13.8507 74.8258 14.448C75.7431 15.0347 76.4151 15.8187 76.8418 16.8C77.5458 15.8187 78.4364 15.0347 79.5138 14.448C80.5911 13.8507 81.7324 13.552 82.9378 13.552C84.1431 13.552 85.1991 13.8453 86.1058 14.432C87.0124 15.0187 87.6898 15.808 88.1378 16.8C88.5964 17.792 88.7351 18.8907 88.5538 20.096L87.1778 30H84.9378L86.2658 20.592C86.3831 19.7387 86.2818 18.9493 85.9618 18.224C85.6524 17.4987 85.1778 16.9173 84.5378 16.48C83.8978 16.032 83.1511 15.808 82.2978 15.808C81.4444 15.808 80.6391 16.016 79.8818 16.432C79.1244 16.8373 78.4898 17.4027 77.9778 18.128C77.4658 18.8427 77.1404 19.664 77.0018 20.592L75.6898 30H73.4498L74.7618 20.592C74.9004 19.664 74.8098 18.8427 74.4898 18.128C74.1698 17.4027 73.6844 16.8373 73.0338 16.432C72.3938 16.016 71.6471 15.808 70.7938 15.808C69.9511 15.808 69.1458 16.032 68.3778 16.48C67.6204 16.9173 66.9804 17.4987 66.4578 18.224C65.9458 18.9493 65.6311 19.7387 65.5138 20.592L64.1858 30H61.9458Z" fill="#774AD9"/>
<g filter="url(#filter0_d_36_2)">
<path d="M92.92 30V7.6H106.152V11.504H96.824V16.048H104.616V19.952H96.824V30H92.92ZM107.545 14H111.449V30H107.545V14ZM109.529 11.936C108.953 11.936 108.468 11.7493 108.073 11.376C107.678 10.992 107.481 10.512 107.481 9.936C107.481 9.37067 107.678 8.896 108.073 8.512C108.468 8.128 108.948 7.936 109.513 7.936C110.078 7.936 110.553 8.128 110.937 8.512C111.332 8.896 111.529 9.37067 111.529 9.936C111.529 10.512 111.337 10.992 110.953 11.376C110.569 11.7493 110.094 11.936 109.529 11.936ZM126.792 14H130.696V30.304C130.696 31.456 130.461 32.5013 129.992 33.44C129.523 34.3893 128.883 35.2 128.072 35.872C127.261 36.5547 126.333 37.0773 125.288 37.44C124.243 37.8133 123.144 38 121.992 38C120.872 38 119.795 37.7707 118.76 37.312C117.725 36.8533 116.808 36.224 116.008 35.424C115.219 34.6347 114.616 33.7333 114.2 32.72L117.768 31.104C117.981 31.6907 118.301 32.2027 118.728 32.64C119.165 33.088 119.667 33.4347 120.232 33.68C120.797 33.936 121.384 34.064 121.992 34.064C122.611 34.064 123.203 33.9787 123.768 33.808C124.344 33.6373 124.861 33.3867 125.32 33.056C125.779 32.736 126.136 32.3413 126.392 31.872C126.659 31.4133 126.792 30.8907 126.792 30.304V28.048C126.291 28.752 125.661 29.3227 124.904 29.76C124.147 30.1973 123.272 30.416 122.28 30.416C121.128 30.416 120.051 30.1973 119.048 29.76C118.045 29.3227 117.16 28.72 116.392 27.952C115.635 27.1733 115.037 26.2773 114.6 25.264C114.173 24.2507 113.96 23.1627 113.96 22C113.96 20.8373 114.173 19.7493 114.6 18.736C115.037 17.7227 115.635 16.832 116.392 16.064C117.16 15.2853 118.045 14.6773 119.048 14.24C120.051 13.8027 121.128 13.584 122.28 13.584C123.272 13.584 124.147 13.8027 124.904 14.24C125.661 14.6667 126.291 15.232 126.792 15.936V14ZM122.328 26.656C123.149 26.656 123.875 26.448 124.504 26.032C125.144 25.6053 125.645 25.04 126.008 24.336C126.371 23.6213 126.552 22.8427 126.552 22C126.552 21.1467 126.365 20.368 125.992 19.664C125.629 18.96 125.128 18.3947 124.488 17.968C123.859 17.5413 123.139 17.328 122.328 17.328C121.528 17.328 120.797 17.5413 120.136 17.968C119.475 18.384 118.947 18.944 118.552 19.648C118.157 20.352 117.96 21.136 117.96 22C117.96 22.864 118.157 23.648 118.552 24.352C118.947 25.056 119.475 25.616 120.136 26.032C120.797 26.448 121.528 26.656 122.328 26.656ZM149.201 19.888V30H145.297V20.912C145.297 20.2827 145.142 19.712 144.833 19.2C144.524 18.6773 144.108 18.2667 143.585 17.968C143.073 17.6587 142.502 17.504 141.873 17.504C141.244 17.504 140.668 17.6587 140.145 17.968C139.633 18.2667 139.222 18.6773 138.913 19.2C138.614 19.712 138.465 20.2827 138.465 20.912V30H134.561L134.545 6H138.449L138.465 15.424C139.009 14.848 139.66 14.3947 140.417 14.064C141.174 13.7227 141.99 13.552 142.865 13.552C144.028 13.552 145.089 13.84 146.049 14.416C147.009 14.9813 147.772 15.744 148.337 16.704C148.913 17.6533 149.201 18.7147 149.201 19.888ZM160.965 17.904H157.861V30H153.957V17.904H151.589V14H153.957V8.976H157.861V14H160.965V17.904Z" fill="#F235D3"/>
</g>
<defs>
<filter id="filter0_d_36_2" x="92.92" y="6" width="73.0448" height="37" filterUnits="userSpaceOnUse" color-interpolation-filters="sRGB">
<feFlood flood-opacity="0" result="BackgroundImageFix"/>
<feColorMatrix in="SourceAlpha" type="matrix" values="0 0 0 0 0 0 0 0 0 0 0 0 0 0 0 0 0 0 127 0" result="hardAlpha"/>
<feOffset dx="3" dy="3"/>
<feGaussianBlur stdDeviation="1"/>
<feComposite in2="hardAlpha" operator="out"/>
<feColorMatrix type="matrix" values="0 0 0 0 0.313726 0 0 0 0 0.94902 0 0 0 0 0.94902 0 0 0 1 0"/>
<feBlend mode="normal" in2="BackgroundImageFix" result="effect1_dropShadow_36_2"/>
<feBlend mode="normal" in="SourceGraphic" in2="effect1_dropShadow_36_2" result="shape"/>
</filter>
</defs>
</svg>
