<svg id="Camada_2" data-name="Camada 2" xmlns="http://www.w3.org/2000/svg" viewBox="0 0 806.4 896.78"><defs><style>.cls-1{fill:#e20613;}.cls-2{fill:#bd1622;}.cls-3{fill:none;stroke:#1d1d1b;stroke-miterlimit:10;stroke-width:7px;}</style></defs><path class="cls-1" d="M736.66,498.93h0a1025.62,1025.62,0,0,0,60.85-212.37c2.39-13.86,4.42-28.58-.82-41.65-4.08-10.19-12.14-18.19-20-25.87L593.88,40C583.33,29.67,572.47,19.12,559,13.18c-16.65-7.32-35.54-6.9-53.73-6.36L280,13.62c-12.52.38-25.69.94-36.37,7.48-9.13,5.59-15.28,14.84-21.13,23.8L119.07,203.3c-15.22,37.77-30.17,76.63-36.6,118.33-6.8,44.11.21,85.72,9.89,128.28,16.42,52.74,37.49,146.2,60,198.6A58.22,58.22,0,0,0,182.26,671c86.09,22.46,175.92,33.69,263.11,53.72l2.89.13c1.89-4.65,4.87-9,7.78-13.13q45.15-64.4,90.31-128.8c8.77-12.51,17.94-25.38,31-33.21,9.45-5.63,20.33-8.26,31-10.82l126.34-30.2-.35-1.44A51.84,51.84,0,0,1,736.66,498.93Z" transform="translate(-76.26 -3.06)"/><path class="cls-1" d="M751.45,828.87l.11.08L871,689.84c3.65-4.26,7.48-8.89,8.06-14.48s-2.2-10.89-4.89-15.8L799.43,523.13c-4-7.32-8.42-15.05-15.81-18.92-9-4.72-20-2.46-29.85-.09l-19,4.54-126.34,30.2c-10.69,2.56-21.57,5.19-31,10.82-13.11,7.83-22.28,20.7-31,33.21Q501.2,647.3,456,711.69c-2.91,4.15-5.89,8.48-7.78,13.13a26.26,26.26,0,0,0-1.92,7.62c-.78,9,3.93,17.47,8.48,25.28l71,121.88c2.9,5,6,10.15,10.8,13.31,9.31,6.1,21.62,2.86,32.21-.58l178.12-57.8,0-.12A62.11,62.11,0,0,0,751.45,828.87ZM634.38,796.18c0-1.86,1.48-3.65,2.91-5.33L686.52,733c4.81-5.65,10.13-11.64,18.78-14.66,5.2-1.82,11.07-2.35,16.77-2.84l53.15-4.6c8.38-.16,24.26,15.59,24.83,21.1s-2.91,11-6.31,16.24L768.54,787c-2.61,4-5.36,8.15-10.21,11.16-3.53,2.19-7.91,3.61-12.22,5q-30.72,9.76-62.09,18.44c-7.48,2.06-16.21,4.06-22.89,1.6-3.41-1.26-5.65-3.5-7.77-5.67l-15.83-16.12C636,799.82,634.39,798.13,634.38,796.18Z" transform="translate(-76.26 -3.06)"/><path class="cls-2" d="M637.29,790.85c-1.43,1.68-2.91,3.47-2.91,5.33s1.61,3.64,3.15,5.21l15.83,16.12c2.12,2.17,4.36,4.41,7.77,5.67,6.68,2.46,15.41.46,22.89-1.6q31.37-8.67,62.09-18.44c4.31-1.37,8.69-2.79,12.22-5,4.85-3,7.6-7.15,10.21-11.16l25.2-38.79c3.4-5.24,6.87-10.74,6.31-16.24s-16.45-21.26-24.83-21.1l-53.15,4.6c-5.7.49-11.57,1-16.77,2.84-8.65,3-14,9-18.78,14.66Z" transform="translate(-76.26 -3.06)"/><path class="cls-3" d="M751.56,829,871,689.84c3.65-4.26,7.48-8.89,8.06-14.48s-2.2-10.89-4.89-15.8L799.43,523.13c-4-7.32-8.42-15.05-15.81-18.92-9-4.72-20-2.46-29.85-.09l-19,4.54-126.34,30.2c-10.69,2.56-21.57,5.19-31,10.82-13.11,7.83-22.28,20.7-31,33.21Q501.2,647.3,456,711.69c-2.91,4.15-5.89,8.48-7.78,13.13a26.26,26.26,0,0,0-1.92,7.62c-.78,9,3.93,17.47,8.48,25.28l71,121.88c2.9,5,6,10.15,10.8,13.31,9.31,6.1,21.62,2.86,32.21-.58l178.12-57.8.12,0" transform="translate(-76.26 -3.06)"/><path class="cls-3" d="M775.22,710.87l-53.15,4.6c-5.7.49-11.57,1-16.77,2.84-8.65,3-14,9-18.78,14.66l-49.23,57.88c-1.43,1.68-2.91,3.47-2.91,5.33s1.61,3.64,3.15,5.21l15.83,16.12c2.12,2.17,4.36,4.41,7.77,5.67,6.68,2.46,15.41.46,22.89-1.6q31.37-8.67,62.09-18.44c4.31-1.37,8.69-2.79,12.22-5,4.85-3,7.6-7.15,10.21-11.16l25.2-38.79c3.4-5.24,6.87-10.74,6.31-16.24S783.6,710.71,775.22,710.87Z" transform="translate(-76.26 -3.06)"/><path class="cls-3" d="M736.69,498.94a1025.62,1025.62,0,0,0,60.85-212.37c2.39-13.86,4.42-28.58-.82-41.65-4.08-10.19-12.14-18.19-20-25.87L593.88,40C583.33,29.67,572.47,19.12,559,13.18c-16.65-7.32-35.54-6.9-53.73-6.36L280,13.62c-12.52.38-25.69.94-36.37,7.48-9.13,5.59-15.28,14.84-21.13,23.8L119.07,203.3" transform="translate(-76.26 -3.06)"/><path class="cls-3" d="M92.36,449.91c-9.68-42.56-16.69-84.17-9.89-128.28,6.43-41.7,21.38-80.56,36.6-118.33" transform="translate(-76.26 -3.06)"/><path class="cls-3" d="M445.37,724.69c-87.19-20-177-31.26-263.11-53.72a58.22,58.22,0,0,1-29.95-22.46c-22.46-52.4-43.53-145.86-59.95-198.6" transform="translate(-76.26 -3.06)"/><path class="cls-3" d="M198.88,374A1191.74,1191.74,0,0,0,97.4,461.52" transform="translate(-76.26 -3.06)"/><path class="cls-3" d="M197.55,374.56c3.14-23.92,15.06-46.67,22.77-70.25" transform="translate(-76.26 -3.06)"/><path class="cls-3" d="M200,374.56h93.58" transform="translate(-76.26 -3.06)"/><path class="cls-3" d="M746.89,834.41a62.11,62.11,0,0,0,4.56-5.54c.09-.11.17-.23.25-.34" transform="translate(-76.26 -3.06)"/><path class="cls-3" d="M736.8,498.55l-.14.38a51.84,51.84,0,0,0-2.25,8.29" transform="translate(-76.26 -3.06)"/></svg>