<svg id="Camada_2" data-name="Camada 2" xmlns="http://www.w3.org/2000/svg" xmlns:xlink="http://www.w3.org/1999/xlink" viewBox="0 0 806.4 896.78"><defs><style>.cls-1{fill:url(#Laranja_Amarelo);}.cls-2{fill:url(#Laranja_Amarelo-2);}.cls-3{fill:#e84e1b;}.cls-4{fill:none;stroke:#1d1d1b;stroke-miterlimit:10;stroke-width:7px;}.cls-5{fill:#f29100;}</style><linearGradient id="Laranja_Amarelo" x1="98.91" y1="365.69" x2="819.16" y2="365.69" gradientUnits="userSpaceOnUse"><stop offset="0" stop-color="#ffee25"/><stop offset="0.02" stop-color="#ffe920"/><stop offset="0.1" stop-color="#fed60e"/><stop offset="0.19" stop-color="#fdcb04"/><stop offset="0.28" stop-color="#fdc700"/><stop offset="0.67" stop-color="#f08f34"/><stop offset="0.89" stop-color="#e86031"/><stop offset="1" stop-color="#e2312d"/></linearGradient><linearGradient id="Laranja_Amarelo-2" x1="19.76" y1="698.89" x2="452.67" y2="698.89" xlink:href="#Laranja_Amarelo"/></defs><path class="cls-1" d="M162.26,498.93h0a1025.62,1025.62,0,0,1-60.85-212.37C99,272.71,97,258,102.2,244.92c4.08-10.19,12.14-18.19,20-25.87L305,40C315.59,29.67,326.45,19.12,340,13.18c16.65-7.32,35.54-6.9,53.73-6.36l225.21,6.8c12.52.38,25.69.94,36.37,7.48,9.13,5.59,15.28,14.84,21.13,23.8L779.85,203.3c15.22,37.77,30.17,76.63,36.6,118.33,6.8,44.11-.21,85.72-9.89,128.28-16.42,52.74-37.49,146.2-59.95,198.6a58.22,58.22,0,0,1-30,22.46c-86.09,22.46-175.92,33.69-263.11,53.72l-2.89.13c-1.89-4.65-4.87-9-7.78-13.13q-45.15-64.4-90.31-128.8c-8.77-12.51-17.94-25.38-31.05-33.21-9.45-5.63-20.33-8.26-31-10.82l-126.34-30.2.35-1.44A51.84,51.84,0,0,0,162.26,498.93Z" transform="translate(-16.26 -3.06)"/><path class="cls-2" d="M147.47,828.87l-.11.08L27.9,689.84c-3.65-4.26-7.48-8.89-8.06-14.48s2.2-10.89,4.89-15.8L99.49,523.13c4-7.32,8.42-15.05,15.81-18.92,9-4.72,20-2.46,29.85-.09l19,4.54,126.34,30.2c10.69,2.56,21.57,5.19,31,10.82,13.11,7.83,22.28,20.7,31.05,33.21q45.15,64.41,90.31,128.8c2.91,4.15,5.89,8.48,7.78,13.13a26.26,26.26,0,0,1,1.92,7.62c.78,9-3.93,17.47-8.48,25.28l-71,121.88c-2.9,5-6,10.15-10.8,13.31-9.31,6.1-21.62,2.86-32.21-.58L152,834.53l0-.12A62.11,62.11,0,0,1,147.47,828.87Zm117.07-32.69c0-1.86-1.48-3.65-2.91-5.33L212.4,733c-4.81-5.65-10.13-11.64-18.78-14.66-5.2-1.82-11.07-2.35-16.77-2.84l-53.15-4.6c-8.38-.16-24.26,15.59-24.83,21.1s2.91,11,6.31,16.24L130.38,787c2.61,4,5.36,8.15,10.21,11.16,3.53,2.19,7.91,3.61,12.22,5q30.72,9.76,62.09,18.44c7.48,2.06,16.21,4.06,22.89,1.6,3.41-1.26,5.65-3.5,7.77-5.67l15.83-16.12C262.93,799.82,264.53,798.13,264.54,796.18Z" transform="translate(-16.26 -3.06)"/><path class="cls-3" d="M261.63,790.85c1.43,1.68,2.91,3.47,2.91,5.33s-1.61,3.64-3.15,5.21l-15.83,16.12c-2.12,2.17-4.36,4.41-7.77,5.67-6.68,2.46-15.41.46-22.89-1.6q-31.36-8.67-62.09-18.44c-4.31-1.37-8.69-2.79-12.22-5-4.85-3-7.6-7.15-10.21-11.16l-25.2-38.79c-3.4-5.24-6.87-10.74-6.31-16.24s16.45-21.26,24.83-21.1l53.15,4.6c5.7.49,11.57,1,16.77,2.84,8.65,3,14,9,18.78,14.66Z" transform="translate(-16.26 -3.06)"/><path class="cls-4" d="M147.36,829,27.9,689.84c-3.65-4.26-7.48-8.89-8.06-14.48s2.2-10.89,4.89-15.8L99.49,523.13c4-7.32,8.42-15.05,15.81-18.92,9-4.72,20-2.46,29.85-.09l19,4.54,126.34,30.2c10.69,2.56,21.57,5.19,31,10.82,13.11,7.83,22.28,20.7,31.05,33.21q45.15,64.41,90.31,128.8c2.91,4.15,5.89,8.48,7.78,13.13a26.26,26.26,0,0,1,1.92,7.62c.78,9-3.93,17.47-8.48,25.28l-71,121.88c-2.9,5-6,10.15-10.8,13.31-9.31,6.1-21.62,2.86-32.21-.58L152,834.53l-.12,0" transform="translate(-16.26 -3.06)"/><path class="cls-4" d="M123.7,710.87l53.15,4.6c5.7.49,11.57,1,16.77,2.84,8.65,3,14,9,18.78,14.66l49.23,57.88c1.43,1.68,2.91,3.47,2.91,5.33s-1.61,3.64-3.15,5.21l-15.83,16.12c-2.12,2.17-4.36,4.41-7.77,5.67-6.68,2.46-15.41.46-22.89-1.6q-31.36-8.67-62.09-18.44c-4.31-1.37-8.69-2.79-12.22-5-4.85-3-7.6-7.15-10.21-11.16l-25.2-38.79c-3.4-5.24-6.87-10.74-6.31-16.24S115.32,710.71,123.7,710.87Z" transform="translate(-16.26 -3.06)"/><path class="cls-4" d="M162.23,498.94a1025.62,1025.62,0,0,1-60.85-212.37C99,272.71,97,258,102.2,244.92c4.08-10.19,12.14-18.19,20-25.87L305,40C315.59,29.67,326.45,19.12,340,13.18c16.65-7.32,35.54-6.9,53.73-6.36l225.21,6.8c12.52.38,25.69.94,36.37,7.48,9.13,5.59,15.28,14.84,21.13,23.8L779.85,203.3" transform="translate(-16.26 -3.06)"/><path class="cls-4" d="M806.56,449.91c9.68-42.56,16.69-84.17,9.89-128.28-6.43-41.7-21.38-80.56-36.6-118.33" transform="translate(-16.26 -3.06)"/><path class="cls-4" d="M453.55,724.69c87.19-20,177-31.26,263.11-53.72a58.22,58.22,0,0,0,30-22.46c22.46-52.4,43.53-145.86,59.95-198.6" transform="translate(-16.26 -3.06)"/><path class="cls-4" d="M700,374a1191.74,1191.74,0,0,1,101.48,87.53" transform="translate(-16.26 -3.06)"/><path class="cls-4" d="M701.37,374.56c-3.14-23.92-15.06-46.67-22.77-70.25" transform="translate(-16.26 -3.06)"/><path class="cls-4" d="M699,374.56H605.37" transform="translate(-16.26 -3.06)"/><path class="cls-4" d="M152,834.41a62.11,62.11,0,0,1-4.56-5.54c-.09-.11-.17-.23-.25-.34" transform="translate(-16.26 -3.06)"/><path class="cls-4" d="M162.12,498.55l.14.38a51.84,51.84,0,0,1,2.25,8.29" transform="translate(-16.26 -3.06)"/><path class="cls-5" d="M337.24,216.17c-.41,1.23-1.52,1.66-3.27,1.26a67.28,67.28,0,0,1-9.78-3.14,55.88,55.88,0,0,1-8.73-4.23,9.41,9.41,0,0,1-2.27-2.81q-1.81-7.35-5.59-22.06-2.75,1.76-18.27,12.28a4.49,4.49,0,0,1-3.46.8,42.31,42.31,0,0,1-8.64-2.68q-12.09-4.8-11.11-7.74c.54-1.62,1.38-4.09,2.53-7.39s2-5.8,2.57-7.48a4.91,4.91,0,0,1,2.4-2.55Q281.84,166,298,156.88q-3.5-7.74-6.91-15.47-5.46-12.53-4.91-14.2c2-5.9,2.94-8.85,4.89-14.76.48-1.45,1.61-1.83,3.4-1.11q3.06,1.22,9.06,3.89t9,3.89a4.13,4.13,0,0,1,2.22,3q2.18,7.8,6.64,20.2,9.9-6.39,16.07-11.16a3.39,3.39,0,0,1,3.39-.55q3.21,1.28,9.67,3.47t9.67,3.47c1.78.71,2.43,1.8,1.95,3.25-1.95,5.9-2.93,8.86-4.89,14.76A4,4,0,0,1,355,158q-7.95,4.14-23.7,12.77c3.62,9,7.06,18,10.51,27.06a5.52,5.52,0,0,1,.28,3.63C340.17,207.31,339.2,210.26,337.24,216.17Z" transform="translate(-16.26 -3.06)"/><path class="cls-5" d="M426.69,227.29c-.43,1.29-1.19,3.17-2.3,5.64s-1.88,4.37-2.32,5.72-1.17,3.44-2.18,6.3-1.73,5-2.2,6.38-1.53,1.76-3.21,1.09c-.62-.24-2.86-1.85-6.67-4.45-7.55-5.16-16.9-8.47-25.44-12q-5.89-2.35-17.9-6.32t-17.75-6.26a2.34,2.34,0,0,1-1.53-3,87.31,87.31,0,0,0,1.66-8.93c.77-6,1.06-9.73,1.34-10.57.41-1.23,2.85-1.3,7.34-.21q7.85,1.89,10.63.81A128.26,128.26,0,0,0,388,189.76c9.88-6.44,15.64-11.94,17.16-16.53a15.31,15.31,0,0,0-.62-11.59,14.57,14.57,0,0,0-8-7.79,32.65,32.65,0,0,0-13.05-2.16,48,48,0,0,0-10.1,1.48c-3,.76-4.74,1.06-5,1q-2.59-1-.38-7.75a57.36,57.36,0,0,0,2.12-7.7,44.44,44.44,0,0,0,.35-5A19.09,19.09,0,0,1,371,129a2.72,2.72,0,0,1,2-1.58c5.32-1.61,11.85-2,19.56-1a84.49,84.49,0,0,1,19.26,4.82c7.89,3,17.18,10,22,16.73,5,7.1,6.9,19.72,3.8,28C431,193.53,410.5,205,394,212c10.55,3.54,21.07,7.19,31.41,11.28C427,223.88,427.38,225.22,426.69,227.29Z" transform="translate(-16.26 -3.06)"/></svg>