<svg id="Camada_2" data-name="Camada 2" xmlns="http://www.w3.org/2000/svg" xmlns:xlink="http://www.w3.org/1999/xlink" viewBox="0 0 806.4 896.78"><defs><style>.cls-1{fill:url(#Laranja_Amarelo);}.cls-2{fill:url(#Laranja_Amarelo-2);}.cls-3{fill:#e84e1b;}.cls-4{fill:none;stroke:#1d1d1b;stroke-miterlimit:10;stroke-width:7px;}.cls-5{fill:#f29100;}</style><linearGradient id="Laranja_Amarelo" x1="800.01" y1="365.69" x2="79.76" y2="365.69" gradientUnits="userSpaceOnUse"><stop offset="0" stop-color="#ffee25"/><stop offset="0.02" stop-color="#ffe920"/><stop offset="0.1" stop-color="#fed60e"/><stop offset="0.19" stop-color="#fdcb04"/><stop offset="0.28" stop-color="#fdc700"/><stop offset="0.67" stop-color="#f08f34"/><stop offset="0.89" stop-color="#e86031"/><stop offset="1" stop-color="#e2312d"/></linearGradient><linearGradient id="Laranja_Amarelo-2" x1="879.16" y1="698.89" x2="446.25" y2="698.89" xlink:href="#Laranja_Amarelo"/></defs><path class="cls-1" d="M736.66,498.93h0a1025.62,1025.62,0,0,0,60.85-212.37c2.39-13.86,4.42-28.58-.82-41.65-4.08-10.19-12.14-18.19-20-25.87L593.88,40C583.33,29.67,572.47,19.12,559,13.18c-16.65-7.32-35.54-6.9-53.73-6.36L280,13.62c-12.52.38-25.69.94-36.37,7.48-9.13,5.59-15.28,14.84-21.13,23.8L119.07,203.3c-15.22,37.77-30.17,76.63-36.6,118.33-6.8,44.11.21,85.72,9.89,128.28,16.42,52.74,37.49,146.2,60,198.6A58.22,58.22,0,0,0,182.26,671c86.09,22.46,175.92,33.69,263.11,53.72l2.89.13c1.89-4.65,4.87-9,7.78-13.13q45.15-64.4,90.31-128.8c8.77-12.51,17.94-25.38,31-33.21,9.45-5.63,20.33-8.26,31-10.82l126.34-30.2-.35-1.44A51.84,51.84,0,0,1,736.66,498.93Z" transform="translate(-76.26 -3.06)"/><path class="cls-2" d="M751.45,828.87l.11.08L871,689.84c3.65-4.26,7.48-8.89,8.06-14.48s-2.2-10.89-4.89-15.8L799.43,523.13c-4-7.32-8.42-15.05-15.81-18.92-9-4.72-20-2.46-29.85-.09l-19,4.54-126.34,30.2c-10.69,2.56-21.57,5.19-31,10.82-13.11,7.83-22.28,20.7-31,33.21Q501.2,647.3,456,711.69c-2.91,4.15-5.89,8.48-7.78,13.13a26.26,26.26,0,0,0-1.92,7.62c-.78,9,3.93,17.47,8.48,25.28l71,121.88c2.9,5,6,10.15,10.8,13.31,9.31,6.1,21.62,2.86,32.21-.58l178.12-57.8,0-.12A62.11,62.11,0,0,0,751.45,828.87ZM634.38,796.18c0-1.86,1.48-3.65,2.91-5.33L686.52,733c4.81-5.65,10.13-11.64,18.78-14.66,5.2-1.82,11.07-2.35,16.77-2.84l53.15-4.6c8.38-.16,24.26,15.59,24.83,21.1s-2.91,11-6.31,16.24L768.54,787c-2.61,4-5.36,8.15-10.21,11.16-3.53,2.19-7.91,3.61-12.22,5q-30.72,9.76-62.09,18.44c-7.48,2.06-16.21,4.06-22.89,1.6-3.41-1.26-5.65-3.5-7.77-5.67l-15.83-16.12C636,799.82,634.39,798.13,634.38,796.18Z" transform="translate(-76.26 -3.06)"/><path class="cls-3" d="M637.29,790.85c-1.43,1.68-2.91,3.47-2.91,5.33s1.61,3.64,3.15,5.21l15.83,16.12c2.12,2.17,4.36,4.41,7.77,5.67,6.68,2.46,15.41.46,22.89-1.6q31.37-8.67,62.09-18.44c4.31-1.37,8.69-2.79,12.22-5,4.85-3,7.6-7.15,10.21-11.16l25.2-38.79c3.4-5.24,6.87-10.74,6.31-16.24s-16.45-21.26-24.83-21.1l-53.15,4.6c-5.7.49-11.57,1-16.77,2.84-8.65,3-14,9-18.78,14.66Z" transform="translate(-76.26 -3.06)"/><path class="cls-4" d="M751.56,829,871,689.84c3.65-4.26,7.48-8.89,8.06-14.48s-2.2-10.89-4.89-15.8L799.43,523.13c-4-7.32-8.42-15.05-15.81-18.92-9-4.72-20-2.46-29.85-.09l-19,4.54-126.34,30.2c-10.69,2.56-21.57,5.19-31,10.82-13.11,7.83-22.28,20.7-31,33.21Q501.2,647.3,456,711.69c-2.91,4.15-5.89,8.48-7.78,13.13a26.26,26.26,0,0,0-1.92,7.62c-.78,9,3.93,17.47,8.48,25.28l71,121.88c2.9,5,6,10.15,10.8,13.31,9.31,6.1,21.62,2.86,32.21-.58l178.12-57.8.12,0" transform="translate(-76.26 -3.06)"/><path class="cls-4" d="M775.22,710.87l-53.15,4.6c-5.7.49-11.57,1-16.77,2.84-8.65,3-14,9-18.78,14.66l-49.23,57.88c-1.43,1.68-2.91,3.47-2.91,5.33s1.61,3.64,3.15,5.21l15.83,16.12c2.12,2.17,4.36,4.41,7.77,5.67,6.68,2.46,15.41.46,22.89-1.6q31.37-8.67,62.09-18.44c4.31-1.37,8.69-2.79,12.22-5,4.85-3,7.6-7.15,10.21-11.16l25.2-38.79c3.4-5.24,6.87-10.74,6.31-16.24S783.6,710.71,775.22,710.87Z" transform="translate(-76.26 -3.06)"/><path class="cls-4" d="M736.69,498.94a1025.62,1025.62,0,0,0,60.85-212.37c2.39-13.86,4.42-28.58-.82-41.65-4.08-10.19-12.14-18.19-20-25.87L593.88,40C583.33,29.67,572.47,19.12,559,13.18c-16.65-7.32-35.54-6.9-53.73-6.36L280,13.62c-12.52.38-25.69.94-36.37,7.48-9.13,5.59-15.28,14.84-21.13,23.8L119.07,203.3" transform="translate(-76.26 -3.06)"/><path class="cls-4" d="M92.36,449.91c-9.68-42.56-16.69-84.17-9.89-128.28,6.43-41.7,21.38-80.56,36.6-118.33" transform="translate(-76.26 -3.06)"/><path class="cls-4" d="M445.37,724.69c-87.19-20-177-31.26-263.11-53.72a58.22,58.22,0,0,1-29.95-22.46c-22.46-52.4-43.53-145.86-59.95-198.6" transform="translate(-76.26 -3.06)"/><path class="cls-4" d="M198.88,374A1191.74,1191.74,0,0,0,97.4,461.52" transform="translate(-76.26 -3.06)"/><path class="cls-4" d="M197.55,374.56c3.14-23.92,15.06-46.67,22.77-70.25" transform="translate(-76.26 -3.06)"/><path class="cls-4" d="M200,374.56h93.58" transform="translate(-76.26 -3.06)"/><path class="cls-4" d="M746.89,834.41a62.11,62.11,0,0,0,4.56-5.54c.09-.11.17-.23.25-.34" transform="translate(-76.26 -3.06)"/><path class="cls-4" d="M736.8,498.55l-.14.38a51.84,51.84,0,0,0-2.25,8.29" transform="translate(-76.26 -3.06)"/><path class="cls-5" d="M492.75,218.92c.36,1.25-.31,2.23-2,2.89a67.61,67.61,0,0,1-9.85,2.92,55.47,55.47,0,0,1-9.59,1.42,9.31,9.31,0,0,1-3.46-1q-5.64-5.07-17.05-15.08-1.29,3-8.16,20.44a4.51,4.51,0,0,1-2.42,2.62,42.31,42.31,0,0,1-8.64,2.65q-12.69,2.83-13.54-.13c-.47-1.64-1.17-4.16-2.08-7.54s-1.61-5.92-2.09-7.62a4.92,4.92,0,0,1,.54-3.46q4.29-8.28,12.51-24.94-7.24-4.42-14.42-8.88-11.58-7.26-12.06-9l-4.28-14.95q-.65-2.21,2.18-2.84,3.21-.72,9.67-1.89c4.3-.78,7.53-1.41,9.67-1.89a4.14,4.14,0,0,1,3.51,1.21q6.19,5.2,16.87,12.94,4.57-10.87,7-18.28a3.37,3.37,0,0,1,2.48-2.36q3.38-.75,9.95-2.58t9.94-2.59q2.81-.63,3.44,1.58c1.72,6,2.57,9,4.29,15a4,4,0,0,1-.52,3.28q-4.23,7.9-12.37,23.91c8,5.37,16,10.91,23.93,16.43a5.46,5.46,0,0,1,2.27,2.83Z" transform="translate(-76.26 -3.06)"/><path class="cls-5" d="M572.91,177.69c.38,1.3.8,3.29,1.28,5.95s.91,4.68,1.3,6,1,3.5,1.76,6.43,1.38,5.1,1.78,6.51-.27,2.32-2,2.72c-.64.14-3.41.07-8,.07-9.15,0-18.73,2.53-27.8,4.41q-6.18,1.38-18.34,4.86t-18.19,4.84a2.34,2.34,0,0,1-2.94-1.6,87.36,87.36,0,0,0-3.67-8.31c-2.75-5.4-4.61-8.64-4.85-9.49-.36-1.24,1.63-2.68,5.94-4.31q7.56-2.85,9.25-5.32a128.16,128.16,0,0,0,11.4-22c4.53-10.88,6.18-18.67,4.85-23.31a15.27,15.27,0,0,0-7-9.22,14.56,14.56,0,0,0-11-1.92,32.44,32.44,0,0,0-12,5.57,47.13,47.13,0,0,0-7.5,6.92c-2.09,2.34-3.32,3.54-3.59,3.6q-2.73.61-4.67-6.19a58.45,58.45,0,0,0-2.6-7.55,41.63,41.63,0,0,0-2.52-4.32,19.09,19.09,0,0,1-2.23-4.2,2.72,2.72,0,0,1,.76-2.43q5.24-6.49,15.57-11.88a83.86,83.86,0,0,1,18.63-6.87c8.17-2,19.8-1.46,27.59,1.42,8.16,3,16.81,12.4,18.92,21,4.49,18.28-5.94,39.3-15.62,54.36,10.71-3,21.45-5.93,32.3-8.39Q572,174.55,572.91,177.69Z" transform="translate(-76.26 -3.06)"/></svg>